# File created by Blade
# Date/Time:  Wed Jan 21 14:55:15 2015
# Frame Rate: 120.000 fps
#------------------------------------------------------
:FULLY-SPECIFIED
:DEGREES
1202
root 20.655103 35.421658 -23.749010 -173.653859 -0.565078 -179.068218
Spine -18.303076 -0.477980 0.712303
Head 13.166064 -2.701232 0.282529
LeftShoulder -15.196926 -29.545628 18.125481
LeftArm 8.111661 2.436313 -10.835638
LeftForeArm 6.663818 -0.000000 -2.514866
LeftHand -9.882305 -0.000000 -2.741201
LeftHandThumb1 -26.253704 0.000000 33.147579
RightShoulder -13.536217 -5.640968 -7.641440
RightArm 12.138939 39.616335 16.591229
RightForeArm -33.635360 -0.000000 5.856341
RightHand -10.489838 -0.000000 4.251087
RightHandThumb1 -24.326973 -0.000000 -32.862282
LeftUpLeg 2.883395 13.747421 2.657563
LeftLeg -6.389871 -0.000000 0.000000
LeftFoot -20.592346 25.511348 -14.613983
LeftToeBase 26.139722 -0.000000 -0.000000
RightUpLeg 0.589277 -12.318697 -2.861043
RightLeg -3.422090 -0.000000 0.000000
RightFoot -19.345312 -21.972720 17.697390
RightToeBase 24.825994 -0.000000 -0.000000
1203
root 20.656290 35.421693 -23.750883 -173.642970 -0.555357 -179.063102
Spine -18.312968 -0.474306 0.712708
Head 13.215717 -2.743781 0.254167
LeftShoulder -15.179621 -29.546466 18.121527
LeftArm 8.109422 2.467129 -10.844660
LeftForeArm 6.592713 -0.000000 -2.524071
LeftHand -9.914684 -0.000000 -2.735571
LeftHandThumb1 -26.253704 0.000000 33.147579
RightShoulder -13.538839 -5.651058 -7.635276
RightArm 12.176206 39.629710 16.621449
RightForeArm -33.648862 -0.000000 5.843485
RightHand -10.470659 0.000000 4.236904
RightHandThumb1 -24.326973 -0.000000 -32.862282
LeftUpLeg 2.878350 13.760630 2.662819
LeftLeg -6.391307 -0.000000 0.000000
LeftFoot -20.584076 25.510922 -14.590474
LeftToeBase 26.146299 -0.000000 -0.000000
RightUpLeg 0.581910 -12.303380 -2.852704
RightLeg -3.426242 -0.000000 0.000000
RightFoot -19.335936 -21.979844 17.689876
RightToeBase 24.789215 -0.000000 -0.000000
1204
root 20.657228 35.421490 -23.752181 -173.630927 -0.558793 -179.071452
Spine -18.321388 -0.484419 0.697179
Head 13.243494 -2.748159 0.268187
LeftShoulder -15.155437 -29.549238 18.119316
LeftArm 8.091771 2.459945 -10.852862
LeftForeArm 6.585177 -0.000000 -2.519739
LeftHand -9.904850 0.000000 -2.712025
LeftHandThumb1 -26.253704 0.000000 33.147579
RightShoulder -13.527587 -5.623743 -7.636972
RightArm 12.166643 39.602009 16.623437
RightForeArm -33.622025 -0.000000 5.838161
RightHand -10.289023 -0.000000 4.368023
RightHandThumb1 -24.326973 -0.000000 -32.862282
LeftUpLeg 2.866858 13.755262 2.653849
LeftLeg -6.391501 -0.000000 0.000000
LeftFoot -20.591111 25.514713 -14.619143
LeftToeBase 26.132138 -0.000000 -0.000000
RightUpLeg 0.590154 -12.260973 -2.859427
RightLeg -3.459396 -0.000000 0.000000
RightFoot -19.342792 -22.025688 17.705013
RightToeBase 24.814664 -0.000000 -0.000000
1205
root 20.658296 35.421544 -23.754469 -173.621796 -0.549381 -179.070952
Spine -18.325666 -0.476941 0.688724
Head 13.244509 -2.779157 0.283269
LeftShoulder -15.145189 -29.536870 18.116484
LeftArm 8.100444 2.455495 -10.869250
LeftForeArm 6.593153 -0.000000 -2.522253
LeftHand -9.913020 0.000000 -2.726233
LeftHandThumb1 -26.253704 0.000000 33.147579
RightShoulder -13.539369 -5.618464 -7.644995
RightArm 12.195710 39.591939 16.668132
RightForeArm -33.636709 -0.000000 5.831973
RightHand -10.241881 -0.000000 4.357260
RightHandThumb1 -24.326973 -0.000000 -32.862282
LeftUpLeg 2.870710 13.757830 2.654451
LeftLeg -6.404272 -0.000000 0.000000
LeftFoot -20.567222 25.516652 -14.606047
LeftToeBase 26.114992 -0.000000 -0.000000
RightUpLeg 0.588364 -12.246454 -2.856968
RightLeg -3.470794 -0.000000 0.000000
RightFoot -19.345207 -22.037047 17.702570
RightToeBase 24.824001 -0.000000 -0.000000
1206
root 20.659497 35.421466 -23.757196 -173.612960 -0.550508 -179.065151
Spine -18.332976 -0.478468 0.692550
Head 13.259440 -2.797250 0.291866
LeftShoulder -15.125133 -29.522838 18.098390
LeftArm 8.102444 2.423741 -10.876227
LeftForeArm 6.636015 -0.000000 -2.524068
LeftHand -9.901281 -0.000000 -2.744303
LeftHandThumb1 -26.253704 0.000000 33.147579
RightShoulder -13.569865 -5.615258 -7.641383
RightArm 12.274703 39.593177 16.715179
RightForeArm -33.660876 -0.000000 5.815788
RightHand -10.223090 -0.000000 4.397387
RightHandThumb1 -24.326973 -0.000000 -32.862282
LeftUpLeg 2.873395 13.762466 2.661528
LeftLeg -6.420074 -0.000000 0.000000
LeftFoot -20.584803 25.518388 -14.627000
LeftToeBase 26.181616 -0.000000 -0.000000
RightUpLeg 0.590087 -12.247820 -2.848633
RightLeg -3.480283 -0.000000 0.000000
RightFoot -19.333420 -22.053227 17.681599
RightToeBase 24.771761 -0.000000 -0.000000
1207
root 20.660396 35.421269 -23.759487 -173.598392 -0.542557 -179.065900
Spine -18.340033 -0.480327 0.683476
Head 13.262213 -2.812083 0.295866
LeftShoulder -15.128763 -29.509392 18.108616
LeftArm 8.103740 2.390479 -10.900352
LeftForeArm 6.663402 0.000000 -2.504541
LeftHand -9.897966 -0.000000 -2.767406
LeftHandThumb1 -26.253704 0.000000 33.147579
RightShoulder -13.557173 -5.602589 -7.628575
RightArm 12.258364 39.582558 16.695002
RightForeArm -33.734631 -0.000000 5.836699
RightHand -10.191078 -0.000000 4.515554
RightHandThumb1 -24.326973 -0.000000 -32.862282
LeftUpLeg 2.869776 13.774862 2.658796
LeftLeg -6.431819 -0.000000 0.000000
LeftFoot -20.570926 25.515874 -14.632899
LeftToeBase 26.121837 -0.000000 -0.000000
RightUpLeg 0.581655 -12.230953 -2.846202
RightLeg -3.488146 -0.000000 0.000000
RightFoot -19.336710 -22.038263 17.713613
RightToeBase 24.801978 -0.000000 -0.000000
1208
root 20.661275 35.420972 -23.762069 -173.581157 -0.540305 -179.061901
Spine -18.356724 -0.485642 0.682854
Head 13.273089 -2.779604 0.313726
LeftShoulder -15.111220 -29.516135 18.116875
LeftArm 8.078090 2.426546 -10.913623
LeftForeArm 6.635356 -0.000000 -2.491156
LeftHand -9.866827 -0.000000 -2.814818
LeftHandThumb1 -26.253704 0.000000 33.147579
RightShoulder -13.518121 -5.625646 -7.643050
RightArm 12.218673 39.587169 16.711819
RightForeArm -33.620418 -0.000000 5.832800
RightHand -10.150981 -0.000000 4.422283
RightHandThumb1 -24.326973 -0.000000 -32.862282
LeftUpLeg 2.862114 13.782196 2.662258
LeftLeg -6.440063 -0.000000 0.000000
LeftFoot -20.571672 25.501055 -14.638570
LeftToeBase 26.128577 -0.000000 -0.000000
RightUpLeg 0.571934 -12.236817 -2.837971
RightLeg -3.496016 -0.000000 0.000000
RightFoot -19.336395 -22.043323 17.705720
RightToeBase 24.780598 -0.000000 -0.000000
1209
root 20.662354 35.420945 -23.763873 -173.561086 -0.536683 -179.058985
Spine -18.369459 -0.486358 0.681465
Head 13.259812 -2.794945 0.320105
LeftShoulder -15.081417 -29.536549 18.107441
LeftArm 8.042104 2.456243 -10.910294
LeftForeArm 6.641852 -0.000000 -2.467450
LeftHand -9.879896 -0.000000 -2.822803
LeftHandThumb1 -26.253704 0.000000 33.147579
RightShoulder -13.518817 -5.596724 -7.643290
RightArm 12.220042 39.587392 16.715246
RightForeArm -33.757048 -0.000000 5.864454
RightHand -10.240299 0.000000 4.537160
RightHandThumb1 -24.326973 -0.000000 -32.862282
LeftUpLeg 2.846647 13.798560 2.663212
LeftLeg -6.442943 -0.000000 0.000000
LeftFoot -20.566806 25.487002 -14.632798
LeftToeBase 26.125211 -0.000000 -0.000000
RightUpLeg 0.556452 -12.240849 -2.829037
RightLeg -3.500286 -0.000000 0.000000
RightFoot -19.331520 -22.028512 17.717876
RightToeBase 24.778111 -0.000000 -0.000000
1210
root 20.662597 35.420477 -23.765790 -173.540633 -0.527417 -179.056977
Spine -18.391661 -0.476336 0.685003
Head 13.263361 -2.855194 0.313974
LeftShoulder -15.057001 -29.513586 18.083568
LeftArm 8.051747 2.438084 -10.910556
LeftForeArm 6.550381 0.000000 -2.489695
LeftHand -9.895272 -0.000000 -2.789921
LeftHandThumb1 -26.253704 0.000000 33.147579
RightShoulder -13.503532 -5.581987 -7.655426
RightArm 12.206206 39.571584 16.711317
RightForeArm -33.729498 0.000000 5.867943
RightHand -10.276248 -0.000000 4.543723
RightHandThumb1 -24.326973 -0.000000 -32.862282
LeftUpLeg 2.839313 13.800615 2.660593
LeftLeg -6.459897 -0.000000 0.000000
LeftFoot -20.560637 25.498221 -14.631388
LeftToeBase 26.149816 -0.000000 -0.000000
RightUpLeg 0.540526 -12.242094 -2.824252
RightLeg -3.508086 -0.000000 0.000000
RightFoot -19.332039 -22.021545 17.711422
RightToeBase 24.782463 -0.000000 -0.000000
1211
root 20.663957 35.420548 -23.768186 -173.528839 -0.525802 -179.052262
Spine -18.394311 -0.480020 0.681765
Head 13.244515 -2.792430 0.328282
LeftShoulder -15.053925 -29.504322 18.095145
LeftArm 8.052308 2.452187 -10.937388
LeftForeArm 6.563984 -0.000000 -2.491931
LeftHand -9.922527 -0.000000 -2.748072
LeftHandThumb1 -26.253704 0.000000 33.147579
RightShoulder -13.502118 -5.613091 -7.633050
RightArm 12.229010 39.601578 16.719355
RightForeArm -33.705918 0.000000 5.858661
RightHand -10.306157 -0.000000 4.528802
RightHandThumb1 -24.326973 -0.000000 -32.862282
LeftUpLeg 2.832272 13.818293 2.664950
LeftLeg -6.462015 -0.000000 0.000000
LeftFoot -20.555620 25.485041 -14.638876
LeftToeBase 26.075485 -0.000000 -0.000000
RightUpLeg 0.537363 -12.239416 -2.815514
RightLeg -3.516349 -0.000000 0.000000
RightFoot -19.335156 -22.023867 17.723281
RightToeBase 24.765070 -0.000000 -0.000000
